<svg width="34" height="34" viewBox="0 0 34 34" fill="none" xmlns="http://www.w3.org/2000/svg">
<path d="M15.5833 24.0835H18.4167V18.4168H24.0833V15.5835H18.4167V9.91683H15.5833V15.5835H9.91666V18.4168H15.5833V24.0835ZM17 31.1668C15.0403 31.1668 13.1986 30.8009 11.475 30.0689C9.75138 29.3134 8.25208 28.2981 6.97708 27.0231C5.70208 25.7481 4.6868 24.2488 3.93125 22.5252C3.1993 20.8016 2.83333 18.9599 2.83333 17.0002C2.83333 15.0404 3.1993 13.1988 3.93125 11.4752C4.6868 9.75155 5.70208 8.25225 6.97708 6.97725C8.25208 5.70225 9.75138 4.69877 11.475 3.96683C13.1986 3.21127 15.0403 2.8335 17 2.8335C18.9597 2.8335 20.8014 3.21127 22.525 3.96683C24.2486 4.69877 25.7479 5.70225 27.0229 6.97725C28.2979 8.25225 29.3014 9.75155 30.0333 11.4752C30.7889 13.1988 31.1667 15.0404 31.1667 17.0002C31.1667 18.9599 30.7889 20.8016 30.0333 22.5252C29.3014 24.2488 28.2979 25.7481 27.0229 27.0231C25.7479 28.2981 24.2486 29.3134 22.525 30.0689C20.8014 30.8009 18.9597 31.1668 17 31.1668ZM17 28.3335C20.1639 28.3335 22.8437 27.2356 25.0396 25.0397C27.2354 22.8439 28.3333 20.1641 28.3333 17.0002C28.3333 13.8363 27.2354 11.1564 25.0396 8.96058C22.8437 6.76475 20.1639 5.66683 17 5.66683C13.8361 5.66683 11.1562 6.76475 8.96041 8.96058C6.76458 11.1564 5.66666 13.8363 5.66666 17.0002C5.66666 20.1641 6.76458 22.8439 8.96041 25.0397C11.1562 27.2356 13.8361 28.3335 17 28.3335Z" fill="#1D1B20"/>
</svg>
